<?xml version="1.0" encoding="UTF-8"?>
<svg id="Layer_1" xmlns="http://www.w3.org/2000/svg" xmlns:xlink="http://www.w3.org/1999/xlink" version="1.1" viewBox="0 0 64 64">
  <!-- Generator: Adobe Illustrator 29.8.2, SVG Export Plug-In . SVG Version: 2.1.1 Build 3)  -->
  <defs>
    <style>
      .st0 {
        fill: #0a0a0f;
      }

      .st1 {
        fill: url(#linear-gradient);
      }

      .st2 {
        isolation: isolate;
      }
    </style>
    <linearGradient id="linear-gradient" x1="26.68" y1="18.44" x2="42.37" y2="45.6" gradientUnits="userSpaceOnUse">
      <stop offset="0" stop-color="#7e00ea"/>
      <stop offset="1" stop-color="#0079a7"/>
    </linearGradient>
  </defs>
  <rect class="st0" y="0" width="64" height="64"/>
  <g class="st2">
    <path class="st1" d="M21.81,44.01c-.87-.53-1.56-1.23-2.08-2.1-.52-.87-.78-1.83-.78-2.9v-12.77c0-1.06.26-2.03.78-2.9.52-.87,1.21-1.57,2.08-2.1.87-.53,1.85-.8,2.94-.8h13.48v-7.98h5.5v32.34h-18.98c-1.09,0-2.07-.27-2.94-.8ZM25.01,39.31h12.73c.14,0,.26-.05.36-.15.1-.1.15-.22.15-.36v-12.35c0-.14-.05-.26-.15-.36-.1-.1-.22-.15-.36-.15h-12.73c-.14,0-.26.05-.36.15s-.15.22-.15.36v12.35c0,.14.05.26.15.36.1.1.22.15.36.15Z"/>
  </g>
</svg>